<svg width="880" height="638" viewBox="0 0 880 638" fill="none" xmlns="http://www.w3.org/2000/svg">
<path d="M440 638C683.005 638 880 594.124 880 540C880 485.876 683.005 442 440 442C196.995 442 0 485.876 0 540C0 594.124 196.995 638 440 638Z" fill="#F2F2F2"/>
<path d="M643.984 217.405L601.078 432.376H591.79L590.768 430.788L587.809 426.184L624.964 225.366L630.604 223.004L643.984 217.405Z" fill="#47465A"/>
<path opacity="0.1" d="M630.604 223.004L590.768 430.788L587.809 426.184L624.964 225.366L630.604 223.004Z" fill="black"/>
<path d="M708.564 510.226L697.533 513.782L694.852 514.649L691.313 506.687L630.604 229.754L636.916 228.339L650.177 225.366L708.564 510.226Z" fill="#47465A"/>
<path opacity="0.1" d="M697.533 513.782L694.852 514.649L691.313 506.687L630.604 229.754L636.916 228.339L697.533 513.782Z" fill="black"/>
<path d="M182.636 217.405L172.905 496.071L161.753 498.548L160.962 498.725L157.865 492.975L164.058 220.058L170.016 219.209L182.636 217.405Z" fill="#47465A"/>
<path opacity="0.1" d="M170.016 219.209L161.753 498.548L160.962 498.725L157.865 492.975L164.058 220.058L170.016 219.209Z" fill="black"/>
<path d="M240.581 594.711L229.045 596.701L227.753 596.922L224.215 589.403L168.039 225.366L169.658 224.875L178.213 222.27L240.581 594.711Z" fill="#47465A"/>
<path opacity="0.1" d="M229.045 596.701L227.753 596.922L224.215 589.403L168.039 225.366L169.658 224.875L229.045 596.701Z" fill="black"/>
<path d="M484.746 194.846L527.697 249.728C529.169 251.609 531.1 253.08 533.305 253.999C535.509 254.918 537.913 255.255 540.286 254.977L716.604 234.327C719.994 233.93 723.12 232.302 725.389 229.752C727.658 227.202 728.911 223.907 728.911 220.494V179.807L484.746 194.846Z" fill="#7A799C"/>
<path d="M629.387 203.692H641.33V220.929C641.33 222.106 640.863 223.234 640.031 224.067C639.198 224.899 638.07 225.366 636.893 225.366H633.825C632.648 225.366 631.519 224.899 630.687 224.067C629.855 223.234 629.387 222.106 629.387 220.929V203.692Z" fill="#47465A"/>
<path d="M168.039 229.79L210.99 284.672C212.462 286.553 214.393 288.024 216.598 288.943C218.802 289.862 221.206 290.199 223.579 289.921L399.897 269.271C403.287 268.874 406.413 267.246 408.682 264.696C410.951 262.146 412.204 258.851 412.204 255.438V214.75L168.039 229.79Z" fill="#7A799C"/>
<path d="M312.68 238.636H324.623V255.873C324.623 257.05 324.156 258.178 323.324 259.011C322.491 259.843 321.363 260.31 320.186 260.31H317.118C315.941 260.31 314.812 259.843 313.98 259.011C313.148 258.178 312.68 257.05 312.68 255.873V238.636H312.68Z" fill="#47465A"/>
<path d="M217.385 257.585L741.844 196.495C743.492 196.303 745.034 195.585 746.241 194.447C747.448 193.309 748.257 191.813 748.546 190.179C748.835 188.546 748.59 186.863 747.847 185.38C747.104 183.897 745.903 182.692 744.422 181.946L650.605 134.764C632.127 125.471 611.379 121.649 590.802 123.747L124.86 171.257C123.194 171.431 121.611 172.071 120.292 173.103C118.973 174.136 117.971 175.519 117.401 177.094C116.832 178.669 116.717 180.373 117.071 182.01C117.425 183.648 118.233 185.152 119.402 186.352L173.661 242.02C179.276 247.781 186.137 252.18 193.716 254.878C201.295 257.576 209.392 258.502 217.385 257.585V257.585Z" fill="#47465A"/>
<path d="M799.544 188.215L793.934 185.114C793.934 185.114 787.877 189.573 782.944 208.354C778.01 227.136 792.164 208.558 792.164 208.558L798.357 195.73L799.544 188.215Z" fill="#47465A"/>
<path d="M739.527 360.277C739.527 360.277 733.777 387.259 731.123 394.778C729.823 398.458 723.541 401.824 716.579 404.399C710.406 406.698 704.016 408.366 697.506 409.375C689.986 410.26 593.559 395.22 546.672 385.047C515.085 378.195 511.003 370.335 511.702 365.938C511.926 364.629 512.554 363.423 513.497 362.488C513.497 362.488 559.942 331.083 576.308 316.044C592.674 301.005 624.964 312.947 660.35 319.14C695.737 325.333 739.527 360.277 739.527 360.277Z" fill="#47465A"/>
<path d="M793.934 185.115C793.934 185.115 815.608 199.269 742.624 228.463C742.624 228.463 702.955 250.829 708.118 342.966C708.363 347.109 709.625 351.128 711.792 354.668C719.322 367.053 735.458 398.405 708.564 402.298V409.375C708.564 409.375 757.22 385.047 762.528 364.257C767.836 343.468 785.529 228.02 794.376 217.405C803.223 206.789 808.973 189.98 793.934 185.115Z" fill="#47465A"/>
<path opacity="0.1" d="M716.579 404.399C710.406 406.698 704.016 408.366 697.506 409.375C689.986 410.26 593.559 395.22 546.672 385.047C515.085 378.195 511.003 370.335 511.702 365.938C532.464 373.038 599.884 395.57 624.08 397.432C652.831 399.644 707.759 405.792 711.922 401.612C713.523 400.002 715.164 401.701 716.579 404.399Z" fill="black"/>
<path d="M463.957 588.518L505.978 396.547C505.978 396.547 513.497 376.2 530.748 377.085L546.672 385.047C546.672 385.047 520.132 378.854 514.382 399.201C508.632 419.549 471.919 588.518 471.919 588.518H463.957Z" fill="#47465A"/>
<path d="M564.808 500.937L581.616 383.72H589.136L571.885 500.937H564.808Z" fill="#47465A"/>
<path d="M725.815 615.5L709.891 432.376C709.891 432.376 709.891 416.895 717.853 409.375C725.815 401.855 751.518 380.405 751.518 380.405C751.518 380.405 758.105 378.854 763.413 393.893C768.721 408.933 805.434 559.324 805.434 559.324L798.357 562.421L752.797 389.028L721.392 418.664C721.392 418.664 715.199 429.722 718.296 439.896C721.392 450.069 732.892 615.5 732.892 615.5H725.815Z" fill="#47465A"/>
<path d="M676.717 404.952L716.526 416.452L725.373 408.048L702.372 404.952H676.717Z" fill="#47465A"/>
<path d="M322.813 82.0981L329.268 178.922L470.37 165.21L464.756 70.5603C464.68 69.2926 464.352 68.0528 463.791 66.9139C463.229 65.775 462.445 64.7599 461.485 63.9285C460.526 63.0971 459.409 62.4661 458.202 62.0727C456.994 61.6794 455.72 61.5316 454.455 61.638L331.513 71.9789C329.026 72.1881 326.72 73.3659 325.093 75.2586C323.466 77.1513 322.647 79.6075 322.813 82.0981Z" fill="#7A799C"/>
<path d="M517.7 193.076L377.039 208.421L371.731 209L330.595 182.461V176.71L470.37 164.122L517.7 193.076Z" fill="#7A799C"/>
<path opacity="0.1" d="M377.039 208.421L371.731 209L330.595 182.461V177.312L377.039 208.421Z" fill="black"/>
<path d="M332.364 81.1669L337.23 167.421L461.082 155.921L456.658 71.8779L332.364 81.1669Z" fill="#9493B6"/>
<path opacity="0.1" d="M406.233 191.307L421.272 201.481L466.832 197.057L451.35 187.326L406.233 191.307Z" fill="black"/>
<path d="M344.749 178.922L363.769 193.076L485.41 181.576L463.736 167.421L344.749 178.922Z" fill="#9493B6"/>
<path opacity="0.1" d="M650.398 48.2139H560.605V138.007H650.398V48.2139Z" fill="#D0A192"/>
<path d="M591.529 89.7677C591.529 89.7677 604.196 124.074 591.529 130.407C578.862 136.74 636.918 130.407 636.918 130.407L653.28 117.212C653.28 117.212 616.335 106.657 621.613 82.3787C626.891 58.1006 591.529 89.7677 591.529 89.7677Z" fill="#D0A192"/>
<path opacity="0.1" d="M591.529 89.7677C591.529 89.7677 604.196 124.074 591.529 130.407C578.862 136.74 636.918 130.407 636.918 130.407L653.28 117.212C653.28 117.212 616.335 106.657 621.613 82.3787C626.891 58.1006 591.529 89.7677 591.529 89.7677Z" fill="#D0A192"/>
<path d="M487.556 433.883C487.556 433.883 535.056 500.911 527.139 519.384C519.223 537.856 523.445 549.467 507.611 555.801C491.778 562.134 487.556 573.745 501.278 573.218C515 572.69 532.945 568.995 535.584 564.245C538.223 559.495 544.556 536.801 553.529 533.634C562.501 530.467 579.39 518.328 567.251 503.55C555.112 488.772 524.526 434.34 526.888 428.833C529.251 423.327 487.556 433.883 487.556 433.883Z" fill="#D0A192"/>
<path d="M586.779 301.409C586.779 301.409 488.611 307.742 463.278 331.493C437.944 355.243 485.445 443.911 490.722 444.966C496 446.022 537.167 441.8 535.584 430.188C534.001 418.577 506.028 371.076 506.028 371.076C506.028 371.076 542.445 357.882 562.501 354.715C582.557 351.549 604.724 336.771 604.724 336.771L586.779 301.409Z" fill="#694646"/>
<path d="M541.917 286.631C541.917 286.631 543.501 345.215 558.279 347.326C573.057 349.437 558.279 302.465 558.279 302.465L557.751 284.52L541.917 286.631Z" fill="#D0A192"/>
<path d="M586.779 133.046C586.779 133.046 559.334 125.129 554.056 146.241C548.778 167.352 547.195 240.186 547.195 240.186L537.695 298.242C537.695 298.242 555.112 292.965 558.806 295.603L580.973 267.631L586.779 133.046Z" fill="#FFC107"/>
<path opacity="0.1" d="M586.779 133.046C586.779 133.046 559.334 125.129 554.056 146.241C548.778 167.352 547.195 240.186 547.195 240.186L537.695 298.242C537.695 298.242 555.112 292.965 558.806 295.603L580.973 267.631L586.779 133.046Z" fill="black"/>
<path d="M624.279 445.122C624.279 445.122 642.724 481.383 653.808 480.855C664.891 480.328 675.447 473.466 680.725 495.106C686.002 516.745 679.669 510.939 686.002 523.606C692.336 536.273 693.391 558.44 681.252 563.718C669.113 568.995 658.03 569.523 657.502 563.718C656.974 557.912 668.058 557.912 655.391 537.328C642.724 516.745 615.807 479.272 604.724 475.578C593.64 471.883 624.279 445.122 624.279 445.122Z" fill="#D0A192"/>
<path d="M672.28 279.77C672.28 279.77 710.28 343.104 685.475 361.576C660.669 380.049 586.779 415.41 586.779 415.41C586.779 415.41 626.363 442.327 628.474 451.3C630.585 460.272 609.474 484.55 602.085 485.078C594.696 485.606 573.057 460.8 549.834 454.466C526.612 448.133 512.362 402.744 537.695 385.854C563.029 368.965 586.779 340.993 586.779 340.993L579.394 300.359L672.28 279.77Z" fill="#694646"/>
<path d="M639.34 71.561C639.34 94.0054 616.348 112.56 593.904 112.56C583.126 112.56 572.789 108.278 565.168 100.657C557.546 93.0352 553.265 82.6985 553.265 71.9202C553.265 61.142 557.546 50.8052 565.168 43.1839C572.789 35.5625 583.126 31.2809 593.904 31.2809C616.348 31.2808 639.34 49.1164 639.34 71.561Z" fill="#D0A192"/>
<path d="M604.196 127.24C604.196 127.24 640.613 111.407 640.613 109.296C640.613 107.184 661.724 114.046 666.474 118.268C671.224 122.49 673.863 121.962 677.03 130.407C680.197 138.851 661.196 217.491 661.196 217.491C661.196 217.491 671.752 278.186 677.558 283.992C683.363 289.798 630.585 298.242 630.585 298.242C630.585 298.242 595.751 304.576 589.946 307.215C584.14 309.854 573.584 313.548 575.695 307.215C577.807 300.881 586.779 296.131 571.473 288.214C571.473 288.214 576.751 262.353 571.473 250.742C566.195 239.13 541.917 196.908 561.445 166.296C580.973 135.685 589.946 124.601 589.946 124.601C589.946 124.601 596.807 130.407 604.196 127.24Z" fill="#FFC107"/>
<path d="M615.807 271.325C615.807 271.325 574.64 289.584 562.237 291.274C549.834 292.964 512.361 302.465 532.945 310.909C553.528 319.354 584.668 306.687 584.668 306.687L628.474 288.214L615.807 271.325Z" fill="#D0A192"/>
<path opacity="0.1" d="M660.129 125.621C660.129 125.621 675.331 118.268 679.553 144.129C683.776 169.991 698.554 251.797 679.553 263.936C660.553 276.075 616.747 295.603 616.747 295.603C616.747 295.603 590.886 278.187 603.025 271.853C615.164 265.52 644.192 247.575 648.414 241.242C652.636 234.908 656.902 164.215 649.513 152.603C642.124 140.992 660.129 125.621 660.129 125.621Z" fill="black"/>
<path d="M659.085 119.324C659.085 119.324 680.197 118.268 684.419 144.129C688.641 169.991 703.419 251.797 684.419 263.936C665.419 276.075 621.613 295.603 621.613 295.603C621.613 295.603 595.751 278.187 607.89 271.853C620.029 265.52 649.057 247.575 653.28 241.242C657.502 234.908 650.113 168.935 642.724 157.324C635.335 145.713 659.085 119.324 659.085 119.324Z" fill="#FFC107"/>
<path d="M583.894 0.508785C577.414 1.39057 570.465 3.76078 567.204 9.42915C565.609 12.2028 565.093 15.4566 563.864 18.4109C560.473 26.5635 552.236 31.432 546.29 37.9593C538.54 46.4661 534.691 59.285 539.262 69.8459C541.032 73.9354 543.906 77.4388 546.086 81.3254C552.167 92.1685 552.491 105.191 552.664 117.621L553.004 142.063C553.056 145.795 553.098 149.602 551.974 153.162C550.85 156.721 548.341 160.054 544.782 161.178C548.709 162.54 552.978 162.55 556.911 161.206C560.844 159.863 564.215 157.244 566.489 153.766C566.975 156.844 566.699 159.994 565.683 162.941C564.668 165.887 562.946 168.539 560.667 170.665C570.343 168.386 578.457 161.349 583.569 152.823C588.681 144.297 591.052 134.381 592.114 124.497C592.676 119.269 592.874 113.864 591.222 108.872C590.059 105.356 588.03 102.205 586.104 99.0418C581.139 90.8881 576.667 82.2157 575.067 72.8041C573.467 63.3925 575.073 53.0661 581.185 45.7318C583.531 42.8978 586.486 40.6296 589.83 39.0962C593.174 37.5628 596.821 36.8037 600.5 36.8755C604.177 37.0176 607.757 38.1014 610.896 40.0231C614.035 41.9448 616.629 44.6401 618.428 47.8509C619.84 50.5085 621.849 54.1104 624.71 53.1766C625.24 52.952 625.757 52.6981 626.259 52.4161C629.449 50.9642 633.073 53.8287 634.48 57.0392C638.918 67.1659 630.743 78.2206 629.898 89.2444C629.112 99.4991 634.829 109.171 641.663 116.856C653.468 130.077 668.887 139.551 686.016 144.106C683.508 143.474 681.259 142.078 679.582 140.109C686.546 140.388 693.518 139.804 700.338 138.369C692.912 132.773 685.434 127.129 679.234 120.199C673.034 113.268 668.123 104.883 666.786 95.6804C664.992 83.3305 669.592 69.9569 664.333 58.6396C659.525 48.2928 647.601 42.5111 643.246 31.9656C638.823 21.254 635.955 11.9482 624.244 7.28508C611.462 2.19569 597.704 -1.37067 583.894 0.508785Z" fill="#432319"/>
</svg>
